<svg width="126" height="135" viewBox="0 0 126 135" fill="none" xmlns="http://www.w3.org/2000/svg">
<path d="M52.5 61.875C58.2991 61.875 63 56.8384 63 50.625V22.5C63 16.2868 58.2991 11.25 52.5 11.25H15.75C9.95101 11.25 5.25 16.2868 5.25 22.5V50.625C5.25 54.8966 7.47196 58.6119 10.7451 60.5171C12.2329 61.3834 13.9378 61.875 15.75 61.875H52.5ZM98.4375 36.5625H68.25V28.125H98.4375C107.861 28.125 115.5 36.3098 115.5 46.4062V99.8438C115.5 109.94 107.861 118.125 98.4375 118.125H27.5625C18.1391 118.125 10.5 109.94 10.5 99.8438V66.5398C12.1421 67.1614 13.9091 67.5 15.75 67.5H18.375V99.8438C18.375 105.28 22.4884 109.688 27.5625 109.688H98.4375C103.512 109.688 107.625 105.28 107.625 99.8438V46.4062C107.625 40.9697 103.512 36.5625 98.4375 36.5625ZM83.6813 90H74.8125C72.6379 90 70.875 91.8889 70.875 94.2188C70.875 96.5486 72.6379 98.4375 74.8125 98.4375H93.1875C95.3621 98.4375 97.125 96.5486 97.125 94.2188V74.5312C97.125 72.2014 95.3621 70.3125 93.1875 70.3125C91.0129 70.3125 89.25 72.2014 89.25 74.5312V84.0336L74.9716 68.7358C73.4339 67.0882 70.9411 67.0882 69.4034 68.7358C67.8657 70.3834 67.8657 73.0541 69.4034 74.7017L83.6813 90Z" fill="#212121"/>
</svg>
