<svg width="135" height="138" viewBox="0 0 135 138" fill="none" xmlns="http://www.w3.org/2000/svg">
<path d="M125.021 103.175C104.883 135.863 60.2809 147.063 25.3998 128.19C15.9008 123.051 7.90416 116.098 1.81358 107.809C-0.222766 105.038 1.09447 101.211 4.47482 100.077C31.9457 90.8632 46.6588 80.1855 55.1965 64.9123C64.1849 48.8337 66.5073 31.221 60.2197 7.07886C59.3505 3.74057 62.1636 0.561908 65.8255 0.745998C77.1786 1.31685 88.27 4.37299 98.3274 9.81499C133.209 28.6877 145.16 70.4863 125.021 103.175ZM64.8849 69.669C55.7608 85.9911 40.739 97.6788 15.1742 107.245C19.6094 111.999 24.8846 116.076 30.8685 119.313C60.5179 135.356 98.4309 125.836 115.549 98.0499C132.668 70.2635 122.509 34.734 92.8587 18.6918C86.4639 15.2316 79.5893 12.9082 72.4996 11.7523C77.218 34.8762 74.1745 53.0509 64.8849 69.669Z" fill="#212121"/>
</svg>
