<svg width="429" height="443" viewBox="0 0 429 443" fill="none" xmlns="http://www.w3.org/2000/svg">
<path d="M371.45 59.4298C376.686 64.8361 376.686 73.6014 371.45 79.0077L287.087 166.125H335.221C342.624 166.125 348.627 172.323 348.627 179.969C348.627 187.614 342.624 193.812 335.221 193.812H254.721C247.317 193.812 241.314 187.614 241.314 179.969V96.9063C241.314 89.2606 247.317 83.0625 254.721 83.0625C262.125 83.0625 268.128 89.2606 268.128 96.9063V146.547L352.491 59.4298C357.727 54.0233 366.216 54.0233 371.45 59.4298Z" fill="#2BBB39"/>
<path d="M117.28 58.6897C140.098 49.8314 165.685 60.4919 176.16 83.2223L191.83 117.222C198.504 131.704 196.507 148.86 186.699 161.295L161.362 193.422C161.731 195.372 162.241 197.771 162.933 200.5C164.931 208.379 168.371 218.704 174.105 228.841C179.841 238.983 186.85 247.144 192.5 252.803C194.42 254.726 196.158 256.336 197.601 257.611L237.986 249.952C251.291 247.428 264.932 251.98 274.289 262.065L295.972 285.43C313.999 304.856 313.248 335.722 294.305 354.19L286.366 361.928C256.177 391.354 209.155 397.64 175.507 368.759C150.309 347.129 120.052 316.717 97.2763 279.804C72.05 238.918 60.2723 190.358 54.6929 153.808C48.3295 112.124 74.0178 75.4847 110.224 61.4289L117.28 58.6897ZM194.022 272.365C186.277 283.664 186.271 283.661 186.271 283.661L186.222 283.625L186.141 283.564L185.9 283.384C185.706 283.238 185.443 283.038 185.118 282.783C184.469 282.277 183.572 281.56 182.474 280.635C180.281 278.794 177.269 276.121 173.831 272.677C166.994 265.828 158.256 255.719 150.952 242.806C143.646 229.888 139.412 217.043 136.995 207.515C135.78 202.723 135.005 198.693 134.529 195.81C134.29 194.366 134.126 193.204 134.017 192.37C133.963 191.953 133.923 191.617 133.894 191.369L133.861 191.063L133.85 190.961L133.846 190.923C133.846 190.923 133.843 190.893 147.179 189.482L133.843 190.893C133.481 187.24 134.539 183.588 136.784 180.741L165.909 143.811C169.178 139.666 169.844 133.947 167.619 129.12L151.95 95.1201C147.46 85.3786 136.494 80.8098 126.715 84.6063L119.659 87.3455C93.2568 97.5954 77.1264 122.954 81.1783 149.497C86.5073 184.405 97.5168 228.666 119.889 264.927C140.623 298.532 168.621 326.843 192.647 347.464C214.191 365.957 245.96 363.238 267.961 341.794L275.898 334.055C284.017 326.142 284.339 312.913 276.614 304.587L254.931 281.222C251.812 277.861 247.265 276.343 242.83 277.182L196.444 285.981C192.891 286.654 189.22 285.815 186.271 283.661L194.022 272.365Z" fill="#2BBB39"/>
</svg>
