<svg width="145" height="147" viewBox="0 0 145 147" fill="none" xmlns="http://www.w3.org/2000/svg">
<path d="M72.5 12.25C75.0025 12.25 77.0313 14.3067 77.0313 16.8438V26.0313C77.0313 28.5683 75.0025 30.625 72.5 30.625C69.9976 30.625 67.9688 28.5683 67.9688 26.0313V16.8438C67.9688 14.3067 69.9976 12.25 72.5 12.25ZM72.5 104.125C89.1835 104.125 102.708 90.4136 102.708 73.5C102.708 56.5863 89.1835 42.875 72.5 42.875C55.8164 42.875 42.2917 56.5863 42.2917 73.5C42.2917 90.4136 55.8164 104.125 72.5 104.125ZM72.5 94.9375C60.8215 94.9375 51.3542 85.3396 51.3542 73.5C51.3542 61.6604 60.8215 52.0625 72.5 52.0625C84.1786 52.0625 93.6458 61.6604 93.6458 73.5C93.6458 85.3396 84.1786 94.9375 72.5 94.9375ZM128.385 78.0938C130.888 78.0938 132.917 76.037 132.917 73.5C132.917 70.963 130.888 68.9063 128.385 68.9063H119.323C116.82 68.9063 114.792 70.963 114.792 73.5C114.792 76.037 116.82 78.0938 119.323 78.0938H128.385ZM72.5 116.375C75.0025 116.375 77.0313 118.432 77.0313 120.969V130.156C77.0313 132.693 75.0025 134.75 72.5 134.75C69.9976 134.75 67.9688 132.693 67.9688 130.156V120.969C67.9688 118.432 69.9976 116.375 72.5 116.375ZM25.6771 78.0938C28.1796 78.0938 30.2083 76.037 30.2083 73.5C30.2083 70.963 28.1796 68.9063 25.6771 68.9063H16.6146C14.1121 68.9063 12.0833 70.963 12.0833 73.5C12.0833 76.037 14.1121 78.0938 16.6146 78.0938H25.6771ZM25.4938 25.8477C27.2634 24.0537 30.1325 24.0537 31.902 25.8477L40.9645 35.0352C42.734 36.8292 42.734 39.7378 40.9645 41.5318C39.195 43.3257 36.3259 43.3257 34.5563 41.5318L25.4938 32.3443C23.7243 30.5503 23.7243 27.6417 25.4938 25.8477ZM31.902 121.157C30.1325 122.951 27.2634 122.951 25.4938 121.157C23.7243 119.363 23.7243 116.454 25.4938 114.66L34.5563 105.473C36.3259 103.678 39.195 103.678 40.9645 105.473C42.734 107.267 42.734 110.175 40.9645 111.969L31.902 121.157ZM119.506 25.8477C117.736 24.0537 114.868 24.0537 113.098 25.8477L104.036 35.0352C102.266 36.8292 102.266 39.7378 104.036 41.5318C105.805 43.3257 108.674 43.3257 110.443 41.5318L119.506 32.3443C121.276 30.5503 121.276 27.6417 119.506 25.8477ZM113.098 121.157C114.868 122.951 117.736 122.951 119.506 121.157C121.276 119.363 121.276 116.454 119.506 114.66L110.443 105.473C108.674 103.678 105.805 103.678 104.036 105.473C102.266 107.267 102.266 110.175 104.036 111.969L113.098 121.157Z" fill="#E8B227"/>
<rect width="145" height="147" stroke="black"/>
</svg>
